<svg xmlns="http://www.w3.org/2000/svg" viewBox="257.053 340.754 86.5 86.5" role="img" aria-label="RevHeat">
  <!-- RevHeat favicon: brand R icon, centered in a square with ~8% padding. Brand primary #6143f9 (guidelines "Full color" icon). Transparent background. -->
  <path d="m310.29 394.81c5.3539-1.5444 9.5753-4.2214 12.458-8.1338 2.8829-3.9125 4.4273-8.6486 4.4273-14.414 0-7.5161-2.574-13.488-7.722-17.812-5.148-4.3243-12.252-6.4865-21.313-6.4865h-25.843v4.7362h25.843c7.619 0 13.488 1.7503 17.606 5.148 4.0154 3.3977 6.0746 8.2368 6.0746 14.414 0 6.2806-2.0592 11.12-6.0746 14.517-4.1184 3.3977-9.9871 5.045-17.606 5.045h-25.84v28.22h5.251v-23.578h20.592c2.0592 0 4.4273-0.10296 7.0013-0.5148l17.194 24.093h5.9717z" fill="#6143f9"/>
</svg>
